/* XPM */
static char *d15d1011178b4a4796152751543e6b2d87JsQZR2QBgVSMls[] = {
/* columns rows colors chars-per-pixel */
"64 64 91 1 ",
"  c black",
". c #030403",
"X c gray2",
"o c #070707",
"O c gray3",
"+ c #0B0B0B",
"@ c gray7",
"# c gray9",
"$ c #1B1B1B",
"% c #1D1D1D",
"& c #222222",
"* c gray14",
"= c gray15",
"- c gray17",
"; c #2C2C2C",
": c #313131",
"> c #343434",
", c gray23",
"< c #3C3D3C",
"1 c #3F3F3F",
"2 c #414141",
"3 c #444444",
"4 c #464646",
"5 c gray28",
"6 c #484848",
"7 c #494949",
"8 c #4C4C4C",
"9 c gray30",
"0 c gray32",
"q c gray33",
"w c #585858",
"e c gray36",
"r c #5F5F5F",
"t c gray38",
"y c #656565",
"u c gray40",
"i c #686868",
"p c gray42",
"a c #6C6C6C",
"s c gray44",
"d c #717171",
"f c #747474",
"g c #767676",
"h c #777777",
"j c #787778",
"k c #7B7B7B",
"l c gray50",
"z c gray51",
"x c gray53",
"c c #888888",
"v c gray56",
"b c gray57",
"n c #979797",
"m c gray60",
"M c #9B9B9C",
"N c #9C9B9C",
"B c gray61",
"V c gray64",
"C c #A4A4A4",
"Z c #A5A5A5",
"A c gray67",
"S c gray68",
"D c #B1B0B1",
"F c #B1B1B1",
"G c #B7B7B7",
"H c #B9B9B9",
"J c #BCBCBC",
"K c gray74",
"L c #C1C1C1",
"P c #C6C6C6",
"I c gray79",
"U c #CBCCCB",
"Y c #CDCDCD",
"T c #D2D2D2",
"R c #D7D7D7",
"E c #D8D8D8",
"W c #DDDDDD",
"Q c #E2E2E2",
"! c #E6E6E6",
"~ c #E9E9E9",
"^ c gray92",
"/ c gray93",
"( c #F1F1F1",
") c #F5F6F5",
"_ c #F6F5F6",
"` c gray97",
"' c #F8F8F8",
"] c #F9F9F9",
"[ c #FBFBFB",
"{ c gray99",
"} c white",
/* pixels */
"}}}}}}}}}}}}}}}}}}}}}}}}}}}}}}}}}}}}}}}}}}}}}}}}}}}}}}}}}}}}}}}}",
"}}}}}}}}}}}}}}}}}}}}}}}}}}}}}}}}}}}}}}}}}}}}}}}}}}}}}}}}}}}}}}}}",
"}}}}}}}}}}}}}}}}}}}}}}}}}}}}}}}}}}}}}}}}}}}}}}}}}}}}}}}}}}}}}}}}",
"}}}}}}}}}}}}}}}}}}}}}}}}}}}}}}}}}}}}}}}}}}}}}}}}}}}}}}}}}}}}}}}}",
"}}}}}}}}}}}}}}}}}}}}}}}}}}}}}}}}}}}}}}}}}}}}}}}}}}}}}}}}}}}}}}}}",
"}}}}}}}}}}}}}}}}}}}}}}}}}}}}}}}}}}}}}}}}}}}}}}}}}}}}}}}}}}}}}}}}",
"}}}}}}}}}}}}}}}}}}}}}}}}}}}}}}}}}}}}}}}}}}}}}}}}}}}}}}}}}}}}}}}}",
"}}}}}}}}}}}}}}}}}}}}}}}}}}}}}}}}}}}}}}}}}}}}}}}}}}}}}}}}}}}}}}}}",
"}}}}}}}}}}}}}}}}}}}}}}}}}}}}}}}}}}}}}}}}}}}}}}}}}}}}}}}}}}}}}}}}",
"}}}}}}}}}}}}}}}}}}}}}}}}}}}}}}}}}}}}}}}}}}}}}}}}}}}}}}}}}}}}}}}}",
"}}}}}}}}}}}}}}}}}}}}}}}}}}}}}}}}}}}}}}}}}}}}}}}}}}}}}}}}}}}}}}}}",
"}}}}}}}}}}}}}}}}}}}}}}}}}}}}}}}}}}}}}}}}}}}}}}}}}}}}}}}}}}}}}}}}",
"}}}}}}}}}}}}}}}}}}}}}}}}}}}}}}}}}}}}}}}}}}}}}}}}}}}}}}}}}}}}}}}}",
"}}}}}}}}}}}}}}}}}}}}}}}}}}]}}}}}}}}}}}}}}}}}}}}}}}}]}}}}}}}}}}}}",
"}}}}}}}}}}}}}}}}}}}}}}}}}}}}}}}}}}}}}}}}}}}}}}}}}}}}}}}}}}}}}}}}",
"}}}}}}}}]VnmmmmnmbF!bmmmmmmmbF}}}}}SxbbbvvbbvvbbbbbbbzR}}}}}}}}}",
"}}}}}}}}]q #+ #&; kR %+ +==- k}}}}}z ;==========&=%#; P}}}}}}}}}",
"}}}}}}}})u79992 $ kR-q799+ & d}}}}}x 1>>>>:>>>:>>>290XI}}}}}}}}}",
"}}}}}}}}}k 95>zHSZL!%:72qSFAAK}}}}}Vdllklkkklkkkklr19 P}]}}}}}}}",
"}}}}}}}}})n+72wI}}}}Wt171V]}}}}}}}}}}}]}]}}}]}}}]}A q I}}}}}}}}}",
"}}}}}}}}}}}F%91 v(}]}/019 9R}}}}}}}}}}}}}}}}}}}}}}F q I}}}}}}}}}",
"}}}}}}}}}}Ia191q@0R}Ek29,72 A]}}}}}HBZZZZZZVVZZVVAh>0 I}]}}}}}}}",
"}}}}}}}}}Z ,7 w%9,;x-=0 tq-q b}}}}}z %XXXX     XX ,79 I}}}}}}}}}",
"}}}}}}}]}x,2+F]K.,7&72 n)~dX2l}}}}}c$7222229997222,>2 P}}}}}}}}}",
"}}}}}}}}}b aW}}}Et192qI}}}]V z}}}}}nqpuuuut5529uuuuua7Y}]}}}}}}}",
"}}}}}}}}}zB]}]}]}K q I}}}]}}Hk}}}}}))))))]~05$n}))))))]}}}}}}}}}",
"}}}}}}}}}!}}}}}]}K q T}]]}}}}~]}}}}}}}}}}}]q5XV}}}}}}}}}}}}}}}}}",
"}}}}}}}}}}}}}}}}}L q T}}}}}}}}}}}RAFFFFFFFS75:dFDFFFFFFS(}}}}}}}",
"}}}}}}}]Bcvvvvvvbd,5,hbvvvvvbxS}}F &      #7771       @ Q}}}}}}}",
"}}}}}}}}u :----;-1999,-;--;;: z}}G 5,>,,,,:;;--,,,,,,:1$!}}}}}}}",
"}}}}}}}]t =%%%%%%@   #%%%%%%- l}}Pulkkhhhhhhhhhfhhhhkkkh~}}}}}}}",
"}}}}}}}}SmBNmBBNmBBNBMmBNNmBBmH}}}}}]}}}}}}}}}}}}}}}}}}}}}}}}}}}",
"}}}}}}}}}}}}}}}}}}}}}}}}}}}}}}}}}}}}}]QRRRRRTRRRRRR!}}}}}}}}}}}}",
"}}}}}}}}}!IYYYYYYYYYYYYYYYYYI~}}}}}}Yt#            -x/}}}}}}}}}}",
"}}}}}}}}}G #               % U}}}]}Y >00q00000q00009 r(}}}}}}}}}",
"}}}}}}}]}K#q9757555555555559 Y}]}}]r,9=            ,0 A}]}}}}}}}",
"}}}}}}}}}K 92qrwrqtrwrwrrqrt,T}}}}R+0-vYIYYYYIYYYYPt1,p]}}}}}}}}",
"}}}}}}}}}I q G}()))))))))))))]}}}}I 0=/}}}}}}}}}}}}K 79(}}}}}}}}",
"}}}}}}}]}Q&9 V}}}}}}}}}}}}}}}}}}]}R 0&G/~~/!~/~/~~~c;2r)}}}}}}}}",
"}}}}}}}}}(05;k]}}]}}}}}]}}}}}}}}}}/255=25255252555::0#b}}}}}}}}}",
"}}}}}}}}}}k17w)}}}}}}}}}}}}}}}}}}}}S 909999997999990, Q}}}}}}}}}",
"}}}}}}}}}}b = W}}}}}}}}}}}}}}}}}}}}}Z               2T}}}}}}}}}}",
"}}}}}}}}]}RZFZQ}}}}}}}}}}}}}}}}}}}}}}WGASSSSSSSASSSL(}]}}}}}}}}}",
"}}}}}}}}}}}}}}}}}}}}}}}}}}}}}}}}}}}}}}}}}}}}}}}}}}}}}}}}}}}}}}}}",
"}}}}}}}}}}}]}}]}}}}}}}}}}}}}}}}}}}}}}}]}}}]}}]}}}}]}}}}}}}}}}}}}",
"}}}}}}}}}}}}}}}}}}}}}}}}}}}}}}}}}}}}}}}}}}}}}}}}}}}}}}}}}}}}}}}}",
"}}}}}}}}}}}}}}}}}}}}}}}}}}}}}}}}}}}}}}}}}}}}}}}}}}}}}}}}}}}}}}}}",
"}}}}}}}}}}}}}}}}}}}}}}}}}}}}}}}}}}}}}}}}}}}}}}}}}}}}}}}}}}}}}}}}",
"}}}}}}}}}}}}}}}}}}}}}}}}}}}}}}}}}}}}}}}}}}}}}}}}}}}}}}}}}}}}}}}}",
"}}}}}}}}}}}}}}}}}}}}}}}}}}}}}}}}}}}}}}}}}}}}}}}}}}}}}}}}}}}}}}}}",
"}}}}}}}}}}}}}}}}}}}}}}}}}}}}}}}}}}}}}}}}}}}}}}}}}}}}}}}}}}}}}}}}",
"}}}}}}}}}}}}}}}}}}}}}}}}}}}}}}}}}}}}}}}}}}}}}}}}}}}}}}}}}}}}}}}}",
"}}}}}}}}}}}}}}}}}}}}}}}}}}}}}}}}}}}}}}}}}}}}}}}}}}}}}}}}}}}}}}}}",
"}}}}}}}}}}}}}}}}}}}}}}}}}}}}}}}}}}}}}}}}}}}}}}}}}}}}}}}}}}}}}}}}",
"}}}}}}}}}}}}}}}}}}}}}}}}}}}}}}}}}}}}}}}}}}}}}}}}}}}}}}}}}}}}}}}}",
"}}}}}}}}}}}}}}}}}}}}}}}}}}}}}}}}}}}}}}}}}}}}}}}}}}}}}}}}}}}}}}}}",
"}}}}}}}}}}}}}}}}}}}}}}}}}}}}}}}}}}}}}}}}}}}}}}}}}}}}}}}}}}}}}}}}",
"}}}}}}}}}}}}}}}}}}}}}}}}}}}}}}}}}}}}}}}}}}}}}}}}}}}}}}}}}}}}}}}}",
"}}}}}}}}}}}}}}}}}}}}}}}}}}}}}}}}}}}}}}}}}}}}}}}}}}}}}}}}}}}}}}}}",
"}}}}}}}}}}}}}}}}}}}}}}}}}}}}}}}}}}}}}}}}}}}}}}}}}}}}}}}}}}}}}}}}",
"}}}}}}}}}}}}}}}}}}}}}}}}}}}}}}}}}}}}}}}}}}}}}}}}}}}}}}}}}}}}}}}}",
"}}}}}}}}}}}}}}}}}}}}}}}}}}}}}}}}}}}}}}}}}}}}}}}}}}}}}}}}}}}}}}}}",
"}}}}}}}}}}}}}}}}}}}}}}}}}}}}}}}}}}}}}}}}}}}}}}}}}}}}}}}}}}}}}}}}",
"}}}}}}}}}}}}}}}}}}}}}}}}}}}}}}}}}}}}}}}}}}}}}}}}}}}}}}}}}}}}}}}}"
};
