/* XPM */
static char *d4986fcb06b14994b508aadfa70b5327TFTBsxN1tpkoGa6O[] = {
/* columns rows colors chars-per-pixel */
"64 58 172 2 ",
"   c black",
".  c gray11",
"X  c #010101",
"o  c #020202",
"O  c gray1",
"+  c #040404",
"@  c gray2",
"#  c #060606",
"$  c #070707",
"%  c gray3",
"&  c #090909",
"*  c gray4",
"=  c #0B0B0A",
"-  c #0B0B0B",
";  c #0C0C0C",
":  c gray5",
">  c #0E0E0E",
",  c gray6",
"<  c #101010",
"1  c #111111",
"2  c gray7",
"3  c #131313",
"4  c gray8",
"5  c #151515",
"6  c #161616",
"7  c gray9",
"8  c #181817",
"9  c #181818",
"0  c #191919",
"q  c gray10",
"w  c #1B1B1B",
"e  c gray11",
"r  c #1D1D1D",
"t  c #1E1E1E",
"y  c gray12",
"u  c #202020",
"i  c gray13",
"p  c #222222",
"a  c #232323",
"s  c gray14",
"d  c #242524",
"f  c #252525",
"g  c gray15",
"h  c #272727",
"j  c #282828",
"k  c gray16",
"l  c #2A2A2A",
"z  c gray17",
"x  c #2C2C2C",
"c  c #2D2D2D",
"v  c gray18",
"b  c #2F2F2F",
"n  c gray19",
"m  c #323232",
"M  c gray20",
"N  c #343434",
"B  c #353535",
"V  c gray21",
"C  c #373737",
"Z  c gray22",
"A  c #393939",
"S  c gray23",
"D  c #3C3C3C",
"F  c #3E3E3E",
"G  c #444444",
"H  c #484848",
"J  c #494949",
"K  c #4B4B4B",
"L  c #4E4E4E",
"P  c gray31",
"I  c #535353",
"U  c #555555",
"Y  c #585858",
"T  c #5A5A5A",
"R  c #5D5D5D",
"E  c gray37",
"W  c #606060",
"Q  c #626262",
"!  c gray39",
"~  c #646464",
"^  c #656565",
"/  c gray40",
"(  c gray42",
")  c #6F6F6F",
"_  c gray44",
"`  c #727272",
"'  c #747474",
"]  c gray46",
"[  c #767676",
"{  c #777777",
"}  c #7E7E7E",
"|  c gray50",
" . c #808080",
".. c #838383",
"X. c #848484",
"o. c gray52",
"O. c #888888",
"+. c #898989",
"@. c gray54",
"#. c #8B8B8B",
"$. c #8D8D8D",
"%. c #8E8E8E",
"&. c gray56",
"*. c gray57",
"=. c #929292",
"-. c gray58",
";. c #959595",
":. c #989898",
">. c #9A9A9A",
",. c gray61",
"<. c #9D9D9D",
"1. c gray62",
"2. c gray63",
"3. c #A4A4A4",
"4. c #A5A5A5",
"5. c #A7A7A7",
"6. c gray67",
"7. c #ACACAC",
"8. c gray68",
"9. c gray69",
"0. c #B4B4B4",
"q. c #B6B6B6",
"w. c #B9B9B9",
"e. c gray73",
"r. c #BBBBBB",
"t. c gray",
"y. c gray75",
"u. c gray76",
"i. c #C5C5C5",
"p. c gray78",
"a. c gray79",
"s. c #CACACA",
"d. c gray80",
"f. c #CDCDCD",
"g. c gray81",
"h. c #D0D0D0",
"j. c #D2D2D2",
"k. c LightGray",
"l. c #D5D5D5",
"z. c #D8D8D8",
"x. c gray85",
"c. c #DADADA",
"v. c #DDDDDD",
"b. c gray87",
"n. c #DFDFDF",
"m. c gray88",
"M. c #E1E1E1",
"N. c #E2E2E2",
"B. c #E6E6E6",
"V. c #E7E7E7",
"C. c gray91",
"Z. c #E9E9E9",
"A. c gray92",
"S. c #ECECEC",
"D. c gray93",
"F. c #EFEFEF",
"G. c gray94",
"H. c #F1F1F1",
"J. c gray95",
"K. c #F3F3F3",
"L. c #F4F4F4",
"P. c gray96",
"I. c #F6F6F6",
"U. c gray97",
"Y. c #F8F8F8",
"T. c #F9F9F9",
"R. c gray98",
"E. c #FBFBFB",
"W. c gray99",
"Q. c #FDFDFD",
"!. c #FEFEFE",
"~. c white",
/* pixels */
"                                                                                                                                ",
"                                                                                                                                ",
"                                                                                                                                ",
"                                                                                                                                ",
"                                                                                                                                ",
"                                                                                                                                ",
"                                                  N h h c c k k p p h                                                           ",
"                                              c p w . . . . . . . . 2 p h c                                                     ",
"                                            h w . . t ` *.1.1.*.{ A . . . h t                                                   ",
"                                          p t . k 9.A.T.~.~.~.~.~.H.g.O.. . h 2                                                 ",
"                                        h w . Y B.~.~.~.~.T.~.~.~.~.~.~.l.Y . p 2                                               ",
"                                        t . k B.~.T.~.~.~.~.~.~.~.~.~.~.~.L.o.. t w                                             ",
"                                      p p . y.~.T.~.~.~.~.~.~.~.~.T.T.T.H.~.~.O.. t h                                           ",
"                                      k . R L.~.~.~.~.~.~.L.j.9.$.{ Q R Q ~ -.*.. + 6                                           ",
"                                      h . q.~.~.~.~.~.L.7.J . . . . . . . . . . h . +                                           ",
"                                    h . . N.~.~.~.~.L.{ . . . . . . h k k . . . . > . p                                         ",
"                                    h . Q T.~.~.~.~.q.. A w ( 6.g.n.B.A.A.N.j.6.( . % . + M                                     ",
"                                    h . -.~.~.~.~.~.( . .  .~.~.~.~.~.~.~.~.~.~.~.O.. h . %                                     ",
"                                    h . q.~.T.~.~.D.k ; . ` ~.~.T.~.~.~.~.~.T.T.~.y.. p % . 2                                   ",
"                                  N t . y.~.T.~.~.n.. ; . t D.~.~.~.~.~.~.~.~.~.~.c.. > > . . h                                 ",
"                          p p h h . p . u.~.~.~.~.n.. + p . p.~.T.~.~.~.~.~.~.~.~.A.k . N h . w                                 ",
"                        6 + . . . . h . u.~.~.T.~.n.. . t . ~ T.~.~.~.~.~.~.~.T.~.T.~ . M p . 2                                 ",
"                      k % . U $.:.A % . y.~.~.T.~.D.c . % t .  .B.~.~.~.~.~.~.~.~.H.{ . 8 . . 2                                 ",
"                      h . G A.~.T.U . . w.~.T.~.~.~.( . 6 . w . . ( $.1.4.2.1.$.{ L > . + . . p                                 ",
"                      h . *.~.~.H.F . . 9.~.~.~.T.~.6.. k . . h . . . . . . . . . . . . . . %                                   ",
"                      k . w.~.~.H.k % . 1.~.~.~.~.~.A.. > 2 . . w k k k k h k k k p . . . . t                                   ",
"                    p > . Q -.:. .. t . O.~.~.~.~.~.~.6.. N 2 . . . . . . . . . . 6 h . . h                                     ",
"                    h . > . . . . . w . ( T.~.~.~.~.~.T.o.. w c t 2 % % > 6 t k h . . . + c                                     ",
"                    t . . w c c h . 6 . F D.~.~.~.~.T.~.T.2.. . . . . . . . . . . N { > . t                                     ",
"                    w . . . . . . . > % . c.~.T.~.~.~.~.~.~.N.7.{ L M M F R  .4.s.H.A.. . p                                     ",
"                    w . . . . . . . + p . w.~.~.~.~.~.~.~.~.~.~.~.L.D.H.H.T.~.~.~.~.D.p . t                                     ",
"                    w . + . . . . . . h . o.~.~.~.~.~.~.~.~.~.T.~.~.~.~.~.~.~.~.T.~.H.A . w                                     ",
"                    w . + . . . . . . w . k D.~.~.~.~.~.~.~.~.~.~.~.~.~.~.~.~.~.~.~.H.G . p                                     ",
"                    6 . + . . . . . . . k . y.~.T.~.~.~.~.~.~.~.~.~.~.~.~.~.~.~.~.~.L.J . t                                     ",
"                    w . . . . . . . . . t . ~ T.~.~.~.~.~.~.~.~.~.~.~.~.~.~.~.~.~.~.L.I . t                                     ",
"                    w . . . . . . . . . . p . p.~.~.~.~.~.~.~.~.~.~.~.~.~.~.~.~.~.~.T.Y . p                                     ",
"                    2 . . . . . . . . . . 6 . G H.~.~.~.~.~.~.~.~.~.~.~.~.~.~.~.~.~.D.h . w                                     ",
"                    2 . . . . . . . . . . . h . *.~.~.T.~.~.~.~.~.~.~.~.T.~.~.~.~.~.7.. t 2                                     ",
"                    w . . . . . . . . . . . + p . 4.~.~.~.~.T.~.~.T.~.T.~.~.~.~.~.y.. . > >                                     ",
"                    2 . . . . . . . . . . . . + w . } c.T.~.~.~.~.~.~.~.~.~.D.p.{ . . > . 6                                     ",
"                      . . . . . . . . . . . . . . p . . ~ 1.w.g.j.j.g.y.6. .A . . p + . . w                                     ",
"                      + . . . . . . . . . . . . . . k 6 . . . . . . . . . . . h h . . . . t                                     ",
"                      % . . . . . . . . . . . . . . . 2 h k p w > > 6 t k k p . . . . . +                                       ",
"                      6 . + . . . . . . . . . . . . . . . . + > 2 2 > % . . . . . . . . %                                       ",
"                      h . . . . . . . . . . . . . . . . . . . . . . . . . . . . . . . . >                                       ",
"                        t . . . . . . . . . . . . . . . . . . . . . . . . . . . . . . . 6                                       ",
"                            w w k t . . . . . . . . . . . . . . . . . . . . . . . . . . 6                                       ",
"                                  t . . . . . . . . . . . . t w w + . . . . . . . . . +                                         ",
"                                  2 . . . . . . . . . . . . k     % . . . . . . . . . %                                         ",
"                                    . . . . . . . . . . . . p     > . . . . . . . . . %                                         ",
"                                    + . . . . . . . . . . . h     > . . . . . . . . . 2                                         ",
"                                    % . + . . . . . . . . . p     2 . + . . . . . . . t                                         ",
"                                    % . . . . . . . . . . +       6 . . . . . . . . +                                           ",
"                                    > . . . . . . . . . . %       k + . . . . . . . 6                                           ",
"                                    w . . . . . . . . . . t         p % % + . . + 2                                             ",
"                                      > . . . . . . . . 6                                                                       ",
"                                        6 + + . . . + 6                                                                         ",
"                                              > 6                                                                               ",
};
