/* XPM */
static char *c2c95e5c59d54bbbba0f333ad2094d58lvguymksfsMODCgx[] = {
/* columns rows colors chars-per-pixel */
"64 64 98 2 ",
"   c black",
".  c #040404",
"X  c #070707",
"o  c gray3",
"O  c #0C0C0C",
"+  c #101010",
"@  c gray7",
"#  c #131313",
"$  c #151515",
"%  c #181818",
"&  c #1C1B1C",
"*  c #1D1D1D",
"=  c #202020",
"-  c gray14",
";  c #2A2A2A",
":  c gray18",
">  c gray19",
",  c gray20",
"<  c #353535",
"1  c #373737",
"2  c #3A3A3A",
"3  c gray23",
"4  c #3C3C3C",
"5  c #3E3E3E",
"6  c gray25",
"7  c #414141",
"8  c #434343",
"9  c #444444",
"0  c gray28",
"q  c #484848",
"w  c gray29",
"e  c #4B4B4B",
"r  c #4C4C4C",
"t  c gray31",
"y  c #515151",
"u  c #565656",
"i  c #585858",
"p  c #5B5B5B",
"a  c #5D5D5D",
"s  c #606060",
"d  c gray38",
"f  c #646464",
"g  c #676767",
"h  c #6A6A6A",
"j  c gray43",
"k  c #6F6F6F",
"l  c #6F706F",
"z  c gray44",
"x  c #747474",
"c  c gray47",
"v  c #797979",
"b  c #7B7B7B",
"n  c #7C7C7C",
"m  c #838383",
"M  c gray52",
"N  c #8B8B8B",
"B  c gray55",
"V  c gray57",
"C  c #979797",
"Z  c #989898",
"A  c #9D9D9D",
"S  c #A0A0A0",
"D  c gray63",
"F  c #A4A4A4",
"G  c gray67",
"H  c gray68",
"J  c #B2B2B2",
"K  c #B4B4B4",
"L  c gray71",
"P  c gray72",
"I  c #BBBABB",
"U  c gray74",
"Y  c gray",
"T  c #C3C3C3",
"R  c #C6C6C6",
"E  c #CACACA",
"W  c gray80",
"Q  c #D0D0D0",
"!  c gray83",
"~  c #D7D7D7",
"^  c #D8D8D8",
"/  c gainsboro",
"(  c gray87",
")  c #E2E2E2",
"_  c #E6E6E6",
"`  c #E7E7E7",
"'  c gray91",
"]  c #EBECEB",
"[  c #ECECEC",
"{  c #EEEEEE",
"}  c #EFEFEF",
"|  c gray95",
" . c #F4F4F4",
".. c gray97",
"X. c #F8F8F8",
"o. c #FBFBFB",
"O. c gray99",
"+. c white",
/* pixels */
"+.+.+.+.+.+.+.+.+.+.+.+.+.+.+.+.+.+.+.+.+.+.+.+.+.+.+.+.+.+.+.+.+.+.+.+.+.+.+.+.+.+.+.+.+.+.+.+.+.+.+.+.+.+.+.+.+.+.+.+.+.+.+.+.",
"+.+.+.+.+.+.+.+.+.+.+.+.+.+.+.+.+.+.+.+.+.+.+.+.+.+.+.+.+.+.+.+.+.+.+.+.+.+.+.+.+.+.+.+.+.+.+.+.+.+.+.+.+.+.+.+.+.+.+.+.+.+.+.+.",
"+.+.+.+.+.+.+.+.+.+.+.+.+.+.+.+.+.+.+.+.+.+.+.+.+.+.+.+.+.+.+.+.+.+.+.+.+.+.+.+.+.+.+.+.+.+.+.+.+.+.+.+.+.+.+.+.+.+.+.+.+.+.+.+.",
"+.+.+.+.+.+.+.+.+.+.+.+.+.+.+.+.+.+.+.+.+.+.+.+.+.+.+.+.+.+.+.+.+.+.+.+.+.+.+.+.+.+.+.+.+.+.+.+.+.+.+.+.+.+.+.+.+.+.+.+.+.+.+.+.",
"+.+.+.+.+.+.+.+.+.+.+.+.+.+.+.+.+.+.+.+.+.+.+.+.+.+.+.+.+.+.+.+.+.+.+.+.+.+.+.+.+.+.+.+.+.+.+.+.+.+.+.+.+.+.+.+.+.+.+.+.+.+.+.+.",
"+.+.+.+.+.+.+.+.+.+.+.+.+.+.+.+.+.+.+.+.+.+.+.+.+.+.+.+.+.+.+.+.+.+.+.+.+.+.+.+.+.+.+.+.+.+.+.+.+.+.+.+.+.+.+.+.+.+.+.+.+.+.+.+.",
"+.+.+.+.+.+.+.+.+.+.+.+.+.+.+.+.+.+.+.+.+.+.+.+.+.+.+.+.+.+.+.+.+.+.+.+.+.+.+.+.+.+.+.+.+.+.+.+.+.+.+.+.+.+.+.+.+.+.+.+.+.+.+.+.",
"+.+.+.+.+.+.+.+.+.+.+.+.+.+.+.+.+.+.+.+.+.+.+.+.+.+.+.+.+.+.+.+.+.+.+.+.+.+.+.+.+.+.+.+.+.+.+.+.+.+.+.+.+.+.+.+.+.+.+.+.+.+.+.+.",
"+.+.+.+.+.+.+.+.+.+.+.+.+.+.+.+.+.+.+.+.+.+.+.+.+.+.+.+.+.+.+.+.+.+.+.+.+.+.+.+.+.+.+.+.+.+.+.+.+.+.+.+.+.+.+.+.+.+.+.+.+.+.+.+.",
"+.+.+.+.+.+.+.+.+.+.+.+.+.+.+.+.+.+.+.+.+.+.+.+.+.+.+.+.+.+.+.+.+.+.+.+.+.+.+.+.+.+.+.+.+.+.+.+.+.+.+.+.+.+.+.+.+.+.+.+.+.+.+.+.",
"+.+.+.+.+.+.+.+.+.+.+.+.+.+.+.+.+.+.+.+.+.+.+.+.+.+.+.+.+.+.+.+.+.+.+.+.+.+.+.+.+.+.+.+.+.+.+.+.+.+.+.+.+.+.+.+.+.+.+.+.+.+.+.+.",
"+.+.+.+.+.+.+.+.+.+.+.+.+.+.+.+.+.+.+.+.+.+.+.+.+.+.+.+.+.+.+.+.+.+.+.+.+.+.+.+.+.+.+.+.+.+.+.+.+.+.+.+.+.+.+.+.+.+.+.+.+.+.+.+.",
"+.+.+.+.+.+.+.+.+.+.+.+.+.+.+.+.+.+.+.+.+.+.+.+.+.o.+.+.+.+.+.+.+.+.+.+.+.o.o.+.+.+.+.+.+.+.+.+.+.+.+.+.+.+.o.+.+.+.+.+.+.+.+.+.",
"+.+.+.+.+.+.+.+.+.+.+.+.+.+.+.+.+.+.+.+.+.+.+.+.+.+.+.+.+.+.+.+.+.+.+.+.+.+.+.+.+.+.+.+.+.+.+.+.+.+.+.+.+.+.+.+.+.+.+.+.+.+.+.+.",
"+.+.+.+.+.+.+.{ _ _ ' ' ' ' _ ' _ | .._ _ ' _ ' ' ' _ ' _ ..+.+.+.+.+.! W Q ! +.+.+.+.+.+.+.o.+.+.+.+...Q Q E ( +.o.+.+.+.+.+.+.",
"+.+.+.+.+.+.+.N   5 , < < < < 5   A !   7 , < < < < < 7   E +.o.+.+.+.a     i +.+.+.+.+.+.+.+.+.+.+.+._   =   C +.+.+.+.+.+.+.+.",
"+.+.+.+.+.+.+.V - r 9 w 9 7 w r o D ^   r 9 9 9 7 r w y X E +.+.+.+.+.c 7 7 j ' | { { | | { { | { { ..! 7 u = F +.+.+.+.+.+.+.+.",
"+.+.+.+.+.+.+.m X y 9 9 w r * ,   A Q   i 9 9 r r = = 5   E +.o.+.+.+.c : w 9 w 9 w 9 9 9 w 9 9 7 w w 9 9 r   D +.+.+.+.+.+.+.+.",
"+.+.+.+.+.+.+.Q 2 $ w 9 7 P { _ ) { | x   9 w 2 H { _ ) ) ..+.+.+.+.+.x : w 9 r w w w w w w w w w w w 9 9 r   D +.+.+.+.+.+.+.+.",
"+.+.+.+.+.+.+.+.' M 5 w 7 9 L +.+.+.+.o.J 9 9 7 5 H +.+.+.+.+.+.+.+.+.z : w 7 * & * * % * & * % % * $ : 9 r   D +.+.+.+.+.+.+.+.",
"+.+.+.+.+.+.+.+.+.) r 7 w w   h ( +.+.+._ a 2 r r   d ^ +.+.o.+.+.+.+.x < 5 d ! ( ^ ( ^ ( ^ ( ( ( ^ ) R 2 r   D +.o.+.+.+.+.+.+.",
"+.+.+.+.+.+.+.| H 7 7 y , * u , $ P { D + 5 y ;   u 2   G o.+.+.+.+.+.c < 2 j +.+.+.+.+.+.+.+.+.+.+.+.| , r   D +.+.+.+.+.+.+.+.",
"+.+.+.+.+.+.+.J   r r   x V   r w $ 2   r w   M G   7 u   E +.+.+.+.+.x < 7 i H L J J L L J J J J J L F 5 r   D +.o.+.+.+.+.+.+.",
"+.+.+.+.+.+.+.L ; 5 $ G o.+.Y ; 2 r 9 r ; : P +.+.Q w , ; E +.o.+.+.+.c < r 9 X                       = w w $ D +.+.+.+.+.+.+.+.",
"+.+.+.+.+.o.+.L   x ( +.+.o.+.) d 5 w < n _ +.+.+.+.{ m   E +.+.+.+.+.j   2 , 5 5 5 2 5 5 5 5 5 5 5 2 2 , 2   A +.o.+.+.+.+.+.+.",
"+.+.+.+.+.+.+.J F +.+.+.+.+.o.+.Z X u   Q +.o.+.+.o.+.+.D R +.+.+.+.+.B f z z j j j z z j j j j j z z j j x a H +.+.+.+.+.+.+.+.",
"+.+.+.+.+.+.+.o.+.+.+.+.+.+.+.+.Z + y   E +.+.+.+.+.+.+.+.o.+.+.+.+.+.+.+.+.+.+.+.+.+.+.+.+.+.+.+.+.+.+.+.+.+.+.+.+.+.+.+.+.+.+.",
"+.+.+.+.+.+...o...........o...+.B % y   E +...+.....o.....o.o.+.+.o...o.....o.o.o.....o.o.....o...o.o...o...o.o...o.+.+.+.+.+.+.",
"+.+.+.+.+.+.C r f d d d d d d d r 7 w 7 u d d d d d d d h 5 E +.+.D w f i d d d d d d d d d d d a d d d d a a h 5 T +.o.+.+.+.+.",
"+.+.+.+.o.+.B * w 9 9 9 9 9 9 9 r r r r w 9 9 9 9 7 9 9 r   E +.+.Z   w 7 7 7 7 7 7 7 2 < 2 < 5 7 7 7 7 7 7 7 r   Y +.+.+.+.+.+.",
"+.+.+.+.+.+.n   $                                       =   T +.+.V   , = = - - - - * 5 w 9 w < = - = - - - = <   P +.o.+.+.+.+.",
"+.+.+.+.+.+.E L L L L P L L P L P L L P L L L L L L P L P L ) +.+.P m B B N N B N B B d 5 w 5 x B M B B N N B B m Q +.+.+.+.+.+.",
"+.+.+.+.+.+.+.+.+.+.+.+.+.+.+.+.+.+.+.+.+.+.+.+.+.+.+.+.+.+.+.+.+.+.+.+.+.+.+.+.+.+.+.H   u   Q +.+.+.+.+.+.+.+.+.+.+.+.+.+.+.+.",
"+.+.+.+.+.+.+.{ L Y P P P Y P I P Y P Y P Y L Y P Y P P T o.+.+.+.+...Q ! ! ! ! ! Q ^ B - r = F ^ ! ! ! ! ! Q ^ o.+.+.+.+.+.+.+.",
"+.+.+.+.+.+.+.!                                         u o.+.+.+.+.)   o             5 w 9 w :           O   9 ..+.+.+.+.+.+.+.",
"+.+.+.+.+.+.+.( , y y r 7 9 7 9 7 9 9 7 9 9 7 9 9 9 7 , j o.+.+.+.+.) 2 y r r w r r r 9 7 9 9 w r r r r r r 9 f ..+.+.+.+.+.+.+.",
"+.+.+.+.+.o.+.( O w 7 w f h f f h d h f d h f f f d h a m o.+.+.+.+.) ; w 9 9 7 5 5 5 7 5 7 5 5 5 5 5 5 5 7 , a ..+.+.+.+.+.+.+.",
"+.+.+.+.+.+.+._ < w 5 a | o.o.o.o.o...+.o...o.o.+.o.o.+.o.+.+.+.+.+.' 5 9 7 y ) { ' { _ ' ' { ' ' { ' ' ] { { ' o.+.+.+.+.+.+.+.",
"+.+.+.+.+.+.+...d 2 w : _ +.+.+.+.+.+.+.+.+.+.+.+.+.+.+.+.+.+.+.+.+.o.h < r - _ +.+.+.+.+.+.+.+.+.+.+.+.+.+.+.+.+.+.+.+.+.+.+.+.",
"+.+.+.+.+.+.+.+.N * y   W +.o.+.o.+.+.+.+.+.o.+.+.o.+.+.+.+.+.+.+.+.+.V $ y   R +.o.+.+.+.+.+.+.+.+.+.+.+.+.+.+.+.+.+.+.+.+.+.+.",
"+.+.+.+.+.+.o.+.H + a + J +.o.+.+.+.+.+.+.+.+.+.+.+.+.+.+.+.+.+.+.+.+.J o a % G +.+.+.+.+.+.+.+.+.+.+.+.+.+.+.+.+.+.+.+.+.+.+.+.",
"+.+.+.+.+.+.+.+.E   :   n +.+.+.+.+.+.+.+.+.+.+.+.+.+.+.+.+.+.+.+.o.+.Q   ;   l +.+.+.+.+.+.+.+.+.+.+.+.+.+.+.+.+.+.+.+.+.+.+.+.",
"+.+.+.+.+.+.+.+.' A F A J +.+.+.+.+.+.+.+.+.+.+.+.+.+.+.+.+.+.+.+.+.+.{ D F A G ..+.+.+.+.+.+.+.+.+.+.+.+.+.+.+.+.+.+.+.+.+.+.+.",
"+.+.+.+.+.+.+.o.+.+.+.+.+.+.+.+.+.+.+.+.+.+.+.+.+.+.+.+.+.+.+.+.+.+.+.+.+.+.+.+.+.+.+.+.+.+.+.+.+.+.+.+.+.+.+.+.+.+.+.+.+.+.+.+.",
"+.+.+.+.+.+.+.+.+.o.+.+.+.+.+.+.+.+.+.+.+.+.+.+.+.+.+.+.+.+.+.+.+.+.+.+.+.o.+.+.+.+.+.+.+.+.+.+.+.+.+.+.+.+.+.+.+.+.+.+.+.+.+.+.",
"+.+.+.+.+.+.+.+.+.+.+.+.+.+.+.+.+.+.+.+.+.+.+.+.+.+.+.+.+.+.+.+.+.+.+.+.+.+.+.+.+.+.+.+.+.+.+.+.+.+.+.+.+.+.+.+.+.+.+.+.+.+.+.+.",
"+.+.+.+.+.+.+.+.+.+.+.+.+.+.+.+.+.+.+.+.+.+.+.+.+.+.+.+.+.+.+.+.+.+.+.+.+.+.+.+.+.+.+.+.+.+.+.+.+.+.+.+.+.+.+.+.+.+.+.+.+.+.+.+.",
"+.+.+.+.+.+.+.+.+.+.+.+.+.+.+.+.+.+.+.+.+.+.+.+.+.+.+.+.+.+.+.+.+.+.+.+.+.+.+.+.+.+.+.+.+.+.+.+.+.+.+.+.+.+.+.+.+.+.+.+.+.+.+.+.",
"+.+.+.+.+.+.+.+.+.+.+.+.+.+.+.+.+.+.+.+.+.+.+.+.+.+.+.+.+.+.+.+.+.+.+.+.+.+.+.+.+.+.+.+.+.+.+.+.+.+.+.+.+.+.+.+.+.+.+.+.+.+.+.+.",
"+.+.+.+.+.+.+.+.+.+.+.+.+.+.+.+.+.+.+.+.+.+.+.+.+.+.+.+.+.+.+.+.+.+.+.+.+.+.+.+.+.+.+.+.+.+.+.+.+.+.+.+.+.+.+.+.+.+.+.+.+.+.+.+.",
"+.+.+.+.+.+.+.+.+.+.+.+.+.+.+.+.+.+.+.+.+.+.+.+.+.+.+.+.+.+.+.+.+.+.+.+.+.+.+.+.+.+.+.+.+.+.+.+.+.+.+.+.+.+.+.+.+.+.+.+.+.+.+.+.",
"+.+.+.+.+.+.+.+.+.+.+.+.+.+.+.+.+.+.+.+.+.+.+.+.+.+.+.+.+.+.+.+.+.+.+.+.+.+.+.+.+.+.+.+.+.+.+.+.+.+.+.+.+.+.+.+.+.+.+.+.+.+.+.+.",
"+.+.+.+.+.+.+.+.+.+.+.+.+.+.+.+.+.+.+.+.+.+.+.+.+.+.+.+.+.+.+.+.+.+.+.+.+.+.+.+.+.+.+.+.+.+.+.+.+.+.+.+.+.+.+.+.+.+.+.+.+.+.+.+.",
"+.+.+.+.+.+.+.+.+.+.+.+.+.+.+.+.+.+.+.+.+.+.+.+.+.+.+.+.+.+.+.+.+.+.+.+.+.+.+.+.+.+.+.+.+.+.+.+.+.+.+.+.+.+.+.+.+.+.+.+.+.+.+.+.",
"+.+.+.+.+.+.+.+.+.+.+.+.+.+.+.+.+.+.+.+.+.+.+.+.+.+.+.+.+.+.+.+.+.+.+.+.+.+.+.+.+.+.+.+.+.+.+.+.+.+.+.+.+.+.+.+.+.+.+.+.+.+.+.+.",
"+.+.+.+.+.+.+.+.+.+.+.+.+.+.+.+.+.+.+.+.+.+.+.+.+.+.+.+.+.+.+.+.+.+.+.+.+.+.+.+.+.+.+.+.+.+.+.+.+.+.+.+.+.+.+.+.+.+.+.+.+.+.+.+.",
"+.+.+.+.+.+.+.+.+.+.+.+.+.+.+.+.+.+.+.+.+.+.+.+.+.+.+.+.+.+.+.+.+.+.+.+.+.+.+.+.+.+.+.+.+.+.+.+.+.+.+.+.+.+.+.+.+.+.+.+.+.+.+.+.",
"+.+.+.+.+.+.+.+.+.+.+.+.+.+.+.+.+.+.+.+.+.+.+.+.+.+.+.+.+.+.+.+.+.+.+.+.+.+.+.+.+.+.+.+.+.+.+.+.+.+.+.+.+.+.+.+.+.+.+.+.+.+.+.+.",
"+.+.+.+.+.+.+.+.+.+.+.+.+.+.+.+.+.+.+.+.+.+.+.+.+.+.+.+.+.+.+.+.+.+.+.+.+.+.+.+.+.+.+.+.+.+.+.+.+.+.+.+.+.+.+.+.+.+.+.+.+.+.+.+.",
"+.+.+.+.+.+.+.+.+.+.+.+.+.+.+.+.+.+.+.+.+.+.+.+.+.+.+.+.+.+.+.+.+.+.+.+.+.+.+.+.+.+.+.+.+.+.+.+.+.+.+.+.+.+.+.+.+.+.+.+.+.+.+.+.",
"+.+.+.+.+.+.+.+.+.+.+.+.+.+.+.+.+.+.+.+.+.+.+.+.+.+.+.+.+.+.+.+.+.+.+.+.+.+.+.+.+.+.+.+.+.+.+.+.+.+.+.+.+.+.+.+.+.+.+.+.+.+.+.+.",
"+.+.+.+.+.+.+.+.+.+.+.+.+.+.+.+.+.+.+.+.+.+.+.+.+.+.+.+.+.+.+.+.+.+.+.+.+.+.+.+.+.+.+.+.+.+.+.+.+.+.+.+.+.+.+.+.+.+.+.+.+.+.+.+.",
"+.+.+.+.+.+.+.+.+.+.+.+.+.+.+.+.+.+.+.+.+.+.+.+.+.+.+.+.+.+.+.+.+.+.+.+.+.+.+.+.+.+.+.+.+.+.+.+.+.+.+.+.+.+.+.+.+.+.+.+.+.+.+.+.",
"+.+.+.+.+.+.+.+.+.+.+.+.+.+.+.+.+.+.+.+.+.+.+.+.+.+.+.+.+.+.+.+.+.+.+.+.+.+.+.+.+.+.+.+.+.+.+.+.+.+.+.+.+.+.+.+.+.+.+.+.+.+.+.+."
};
