/* XPM */
static char *_699447c9a01459cb6b557d1da4a8f9aCtqGj2nLjyggZL2Y[] = {
/* columns rows colors chars-per-pixel */
"64 64 100 2 ",
"   c black",
".  c gray1",
"X  c gray2",
"o  c #050605",
"O  c gray3",
"+  c #0C0C0C",
"@  c #0E0E0E",
"#  c #101010",
"$  c #101110",
"%  c #111011",
"&  c #131313",
"*  c gray8",
"=  c #161616",
"-  c #181818",
";  c gray10",
":  c #1E1E1E",
">  c gray13",
",  c gray14",
"<  c gray16",
"1  c #2C2C2C",
"2  c #2F2F2F",
"3  c gray19",
"4  c #343434",
"5  c #373737",
"6  c gray22",
"7  c gray24",
"8  c gray25",
"9  c #434343",
"0  c #444444",
"q  c gray27",
"w  c #484848",
"e  c #4B4B4B",
"r  c #4C4C4C",
"t  c #4E4E4E",
"y  c gray31",
"u  c #4F5050",
"i  c #505050",
"p  c #515151",
"a  c gray32",
"s  c #535353",
"d  c gray33",
"f  c #565656",
"g  c #5B5B5B",
"h  c gray36",
"j  c #626262",
"k  c gray39",
"l  c #676767",
"z  c DimGray",
"x  c gray42",
"c  c gray44",
"v  c gray46",
"b  c gray47",
"n  c #7B7B7B",
"m  c #7C7C7C",
"M  c gray51",
"N  c #868686",
"B  c #8B8B8B",
"V  c #8B8C8C",
"C  c #8E8E8F",
"Z  c gray56",
"A  c #909090",
"S  c #929292",
"D  c gray59",
"F  c #989898",
"G  c gray60",
"H  c #9F9F9F",
"J  c #9FA09F",
"K  c #A2A2A2",
"L  c gray65",
"P  c #A9A9A9",
"I  c #ACACAC",
"U  c gray69",
"Y  c gray71",
"T  c gray73",
"R  c gray74",
"E  c #C3C3C3",
"W  c gray77",
"Q  c gray78",
"!  c #C8C8C8",
"~  c #CACACA",
"^  c #CECECE",
"/  c #D0D0D0",
"(  c #D2D2D2",
")  c #D5D5D5",
"_  c gray84",
"`  c gray85",
"'  c gray86",
"]  c #DDDDDD",
"[  c #DFDFDF",
"{  c #E1E1E1",
"}  c gray90",
"|  c #E7E7E7",
" . c #E9E9E9",
".. c #ECECEC",
"X. c #EFEFEF",
"o. c gray94",
"O. c #F6F6F6",
"+. c #FBFBFB",
"@. c gray99",
"#. c white",
/* pixels */
"#.#.#.#.#.#.#.#.#.#.#.#.#.#.#.#.#.#.#.#.#.#.#.#.#.#.#.#.#.#.#.#.#.#.#.#.#.#.#.#.#.#.#.#.#.#.#.#.#.#.#.#.#.#.#.#.#.#.#.#.#.#.#.#.",
"#.#.#.#.#.#.#.#.#.#.#.#.#.#.#.#.#.#.#.#.#.#.#.#.#.#.#.#.#.#.#.#.#.#.#.#.#.#.#.#.#.#.#.#.#.#.#.#.#.#.#.#.#.#.#.#.#.#.#.#.#.#.#.#.",
"#.#.#.#.#.#.#.#.#.#.#.#.#.#.#.#.#.#.#.#.#.#.#.#.#.#.#.#.#.#.#.#.#.#.#.#.#.#.#.#.#.#.#.#.#.#.#.#.#.#.#.#.#.#.#.#.#.#.#.#.#.#.#.#.",
"#.#.#.#.#.#.#.#.#.#.#.#.#.#.#.#.#.#.#.#.#.#.#.#.#.#.#.#.#.#.#.#.#.#.#.#.#.#.#.#.#.#.#.#.#.#.#.#.#.#.#.#.#.#.#.#.#.#.#.#.#.#.#.#.",
"#.#.#.#.#.#.#.#.#.#.#.#.#.#.#.#.#.#.#.#.#.#.#.#.#.#.#.#.#.#.#.#.#.#.#.#.#.#.#.#.#.#.#.#.#.#.#.#.#.#.#.#.#.#.#.#.#.#.#.#.#.#.#.#.",
"#.#.#.#.#.#.#.#.#.#.#.#.#.#.#.#.#.#.#.#.#.#.#.#.#.#.#.#.#.#.#.#.#.#.#.#.#.#.#.#.#.#.#.#.#.#.#.#.#.#.#.#.#.#.#.#.#.#.#.#.#.#.#.#.",
"#.#.#.#.#.#.#.#.#.#.#.#.#.#.#.#.#.#.#.#.#.#.#.#.#.#.#.#.#.#.#.#.#.#.#.#.#.#.#.#.#.#.#.#.#.#.#.#.#.#.#.#.#.#.#.#.#.#.#.#.#.#.#.#.",
"#.#.#.#.#.#.#.#.#.#.#.#.#.#.#.#.#.#.#.#.#.#.#.#.#.#.#.#.#.#.#.#.#.#.#.#.#.#.#.#.#.#.#.#.#.#.#.#.#.#.#.#.#.#.#.#.#.#.#.#.#.#.#.#.",
"#.#.#.#.#.#.#.#.#.#.#.#.#.#.#.#.#.#.#.#.#.#.#.#.#.#.#.#.#.#.#.#.#.#.#.#.#.#.#.#.#.#.#.#.#.#.#.#.#.#.#.#.#.#.#.#.#.#.#.#.#.#.#.#.",
"#.#.#.#.#.#.#.#.#.#.#.#.#.#.#.#.#.#.#.#.#.#.#.#.#.#.#.#.#.#.#.#.#.#.#.#.#.#.#.#.#.#.#.#.#.#.#.#.#.#.#.#.#.#.#.#.#.#.#.#.#.#.#.#.",
"#.#.#.#.#.#.#.#.#.#.#.#.#.#.#.#.#.#.#.#.#.#.#.#.#.#.#.#.#.#.#.#.#.#.#.#.#.#.#.#.#.#.#.#.#.#.#.#.#.#.#.#.#.#.#.#.#.#.#.#.#.#.#.#.",
"#.#.#.#.#.#.#.#.#.#.#.#.#.#.#.#.#.#.#.#.#.#.#.#.#.#.#.#.#.#.#.#.#.#.#.#.#.#.#.#.#.#.#.#.#.#.#.#.#.#.#.#.#.#.#.#.#.#.#.#.#.#.#.#.",
"#.#.#.#.#.#.#.#.#.#.#.#.#.#.#.#.#.#.#.#.#.#.#.#.#.#.#.+.#.#.#.#.#.#.#.#.#.#.#.#.#.#.#.#.#.#.#.#.#.#.#.#.#.#.#.#.#.#.#.#.#.#.#.#.",
"#.#.#.#.#.#.#.#.#.#.#.#.#.#.#.#.#.#.#.#.#.#.#.#.#.#.#.#.#.#.#.#.#.#.#.+.O.+.+.#.#.#.#.#.#.#.#.#.#.#.#.#.#.#.#.#.#.#.#.#.#.#.#.#.",
"#.#.#.#.#.#.#.` M A A A A A C C C J  .A C C A A D A C A M Q #.+.#.#.+.B g x l o.#.+.#.#.#.#.#.#.#.#.#.#.} m A b U #.#.#.#.#.#.#.",
"#.#.#.#.#.#.#.~   < * * * > < 1   h { 2   ; - % > < , 6   I #.#.#.#.#.c * 6 9 X.#.#.#.#.#.#.#.#.#.#.#.#.`   6   A #.#.#.#.#.#.#.",
"#.#.#.#.#.+.#.~ > f w t t 4 * 3   h { f t w t t 3 * < 6   I #.+.#.#.#.b 4 w t o.#.#.#.#.#.#.#.#.#.#.+.#.] < f , F #.#.#.#.#.#.#.",
"#.#.#.#.#.#.#./   w w q 6 M H B B H  .7 3 t q 6 M H A A M ~ #.#.#.#.#.b 3 q t o.#.#.#.#.#.#.#.#.#.#.#.#.] * a O F #.#.#.#.#.#.#.",
"#.#.#.#.#.#.#.#.E @ 3 t 6 m  .#.#.#.#.` t , t 4 m  .#.#.#.#.#.#.#.#.#.b 3 q w o.#.#.#.#.#.#.#.#.#.#.+.#.] ; a @ F #.#.#.#.#.#.#.",
"#.#.#.#.#.#.#.#.#.} x 6 t , , E #.#.+.#.+.m 3 t > < E #.#.#.#.#.#.#.#.b 3 q t o.#.#.#.#.#.#.#.#.#.#.#.#.] * a O F #.#.#.#.#.#.#.",
"#.#.#.#.#.#.#.#.#.{ v 4 w a w   C o.#.#.~ x 4 t f q   A o.#.#.#.U b B t q 9 w o.#.#.#.#.#.#.#.#.#.#.#.#.` ; a @ D #.#.#.#.#.#.#.",
"#.#.#.#.#.#.#.O.K   1 a 4   7 f   g ~ C   6 t ,   4 f O f ] #.#.D   3 9 q 7 t o.#.#.#.#.#.#.#.#.#.#.#.#.] * a @ D #.+.#.#.#.#.#.",
"#.#.#.#.#.#.#.{   a t   b ~ h   f 4   > a w   D ` x   h   P #.#.J 3 f q q 9 t o.#.+.#.#.#.#.#.#.#.#.+.#.] * f O F #.#.#.#.#.#.#.",
"#.#.#.#.#.#.#.} q 7   P +.#.o.N % t t a 1 4 E #.#.O.A   ; Y #.#.A   % 7 q 9 t  .#.#.#.+.+.#.+.#.+.#.+.#.] ; a @ F #.#.#.#.#.#.#.",
"#.#.#.#.#.#.#.}   k ` #.#.+.#.#.K : t 4 c  .#.#.+.#.#.T   I #.#.] ~ ^ l 6 q a  .#.#.#.#.#.#.#.#.#.#.#.#.{ % a O F #.#.#.#.#.#.#.",
"#.#.#.#.#.#.#.{ D O.#.#.#.#.+.#.Q   f   I #.+.#.#.+.#.#.~ Y #.#.#.#.#.b 1 q t o.#.#.O.^ / / / / / / ^ _ Y 1 a @ F #.#.#.#.#.#.#.",
"#.#.#.#.#.#.#.#.#.#.#.#.#.#.#.#.Q   f   L #.#.#.#.#.#.#.#.#.#.#.#.+.+.b 3 q t X.#.#.{                   : q w @ F #.#.#.#.#.#.#.",
"#.#.#.#.#.#.+.O.O.O.O.O.O.O.O.#.T   a   K #.O.O.O.O.O.O.O.O.+.#.#.#.#.b 3 q t X.#.#.} 9 f f f a a f a f a t a < F #.#.#.#.#.#.#.",
"#.#.#.#.#.#.^ 6 k g h h h h h h a 9 q 9 t h h h g h h h k 4 Y #.#.#.#.b 3 q a X.#.#.{   O                   *   B #.#.#.#.#.#.#.",
"#.#.#.#.#.#.~   t 9 q q q q q q q t w t w q q q q q q q a   U #.#.#.#.b 1 q t o.#.#.X.H L K L L L K K L L K L K E #.#.#.#.#.#.#.",
"#.#.#.#.+.#.E   >                                       >   P #.+.#.#.b 3 q w o.#.#.#.#.#.#.#.#.#.#.#.#.#.#.#.#.#.#.#.#.#.#.#.#.",
"#.#.#.#.#.#.] F K K K K K K K K K H K H K K K K K K K K K F / #.#.#.#.b 3 q t O.#.#.#.#.#.#.#.#.#.#.#.#.#.#.#.#.+.#.#.#.#.#.#.#.",
"#.#.#.#.#.#.#.#.#.#.#.#.#.#.#.#.#.#.#.#.#.#.#.#.#.#.#.#.#.#.#.#.#.#.#.b 1 q w F K K K H K H K K K K H H K K D / #.#.#.#.#.#.#.#.",
"#.#.#.#.#.#.#.+.] ` ` ` ` ` ` ` ` ` ` ` ` ` ` ` ` ` ` ` ` O.#.#.#.#.#.b 3 w q ;   O X X X X X X X X X     >   P #.#.#.#.#.#.#.#.",
"#.#.#.#.#.#.#.+.h   : % % * # % * % # % * % & & * % ;   > X.#.#.#.#.#.b 1 w 9 w t w w w q t w w w w w t t a % Y #.#.#.#.#.#.#.#.",
"#.#.#.#.#.#.#.+.v 7 t w t a a a a a a u a a u a a a a t f X.#.#.#.#.+.b 3 w q w w w t t w w w t t t w q q t   Y #.+.#.#.#.#.#.#.",
"#.#.#.#.#.#.#.+.x 4 w q ,   O X X . X X X X X X X X %   ;  .#.#.#.#.#.b 3 q w { o.X.X. .o. .X.X.X. .O.E   a   Y #.#.#.#.#.#.#.#.",
"#.#.#.#.#.#.#.+.b 1 w 3 T ` ` _ _ _ _ _ / _ _ _ _ _ _ _ _ +.#.#.#.#.#.b 3 q a o.#.#.#.#.#.#.#.#.#.#.#.^   f   U #.+.#.#.#.#.#.#.",
"#.#.#.#.#.#.#.#.F O f   ^ #.#.#.#.#.#.#.#.#.#.#.#.#.#.#.#.#.#.#.#.#.#.b 3 q t O.#.#.#.#.#.#.#.#.#.#.#./   f   Y #.+.#.#.#.#.#.#.",
"#.#.#.#.#.#.#.#.R   f   P #.+.+.#.+.#.#.#.+.#.+.#.+.#.#.#.#.#.#.#.#.#.b 3 q q Y E R R R R R R R R R E H 1 a   U #.#.#.#.#.#.#.#.",
"#.#.#.#.#.#.+.#./   f : B #.#.#.#.#.#.#.#.#.#.#.#.#.#.#.#.#.#.#.#.#.#.v 3 q q                         > w w   Y #.+.#.#.#.#.#.#.",
"#.#.#.#.#.#.#.#.} 6 a 9 l O.#.#.#.#.#.#.#.#.#.#.#.#.#.#.#.#.#.#.#.#.#.m 4 a w s f s a f f s f a f a f a w a @ Y #.#.#.#.#.#.#.#.",
"#.#.#.#.#.#.#.#.O.t   >   } #.#.#.#.#.#.#.#.#.#.#.#.#.#.#.#.#.#.#.#.#.x   > # # $ % % % # # # $ @ % % % * <   I #.+.#.#.#.#.#.#.",
"#.#.#.#.#.#.#.#.#.{ ] ' ` O.#.#.#.#.#.#.#.#.#.#.#.#.#.#.#.#.#.#.#.#.#.{ ] ] ] ] ] ] ] ] ] ] ] ] ] ] ] ] ] ] `  .#.#.#.#.#.#.#.#.",
"#.#.#.#.#.#.#.#.#.#.#.#.#.#.#.#.#.#.#.#.#.#.#.#.#.#.#.#.#.#.#.#.#.#.#.#.#.#.#.#.#.#.#.#.#.#.#.#.#.#.#.#.#.#.#.#.#.#.#.#.#.#.#.#.",
"#.#.#.#.#.#.#.#.#.#.+.#.+.#.#.#.#.#.#.#.#.#.#.#.#.#.#.#.#.#.#.#.#.#.#.#.+.#.+.#.+.#.+.#.+.#.+.#.#.+.+.#.#.+.+.#.#.#.#.#.#.#.#.#.",
"#.#.#.#.#.#.#.#.#.#.#.#.#.#.#.#.#.#.#.#.#.#.#.#.#.#.#.#.#.#.#.#.#.#.#.#.#.#.#.#.#.#.#.#.#.#.#.#.#.#.#.#.#.#.#.#.#.#.#.#.#.#.#.#.",
"#.#.#.#.#.#.#.#.#.#.#.#.#.#.#.#.#.#.#.#.#.#.#.#.#.#.#.#.#.#.#.#.#.#.#.#.#.#.#.#.#.#.#.#.#.#.#.#.#.#.#.#.#.#.#.#.#.#.#.#.#.#.#.#.",
"#.#.#.#.#.#.#.#.#.#.#.#.#.#.#.#.#.#.#.#.#.#.#.#.#.#.#.#.#.#.#.#.#.#.#.#.#.#.#.#.#.#.#.#.#.#.#.#.#.#.#.#.#.#.#.#.#.#.#.#.#.#.#.#.",
"#.#.#.#.#.#.#.#.#.#.#.#.#.#.#.#.#.#.#.#.#.#.#.#.#.#.#.#.#.#.#.#.#.#.#.#.#.#.#.#.#.#.#.#.#.#.#.#.#.#.#.#.#.#.#.#.#.#.#.#.#.#.#.#.",
"#.#.#.#.#.#.#.#.#.#.#.#.#.#.#.#.#.#.#.#.#.#.#.#.#.#.#.#.#.#.#.#.#.#.#.#.#.#.#.#.#.#.#.#.#.#.#.#.#.#.#.#.#.#.#.#.#.#.#.#.#.#.#.#.",
"#.#.#.#.#.#.#.#.#.#.#.#.#.#.#.#.#.#.#.#.#.#.#.#.#.#.#.#.#.#.#.#.#.#.#.#.#.#.#.#.#.#.#.#.#.#.#.#.#.#.#.#.#.#.#.#.#.#.#.#.#.#.#.#.",
"#.#.#.#.#.#.#.#.#.#.#.#.#.#.#.#.#.#.#.#.#.#.#.#.#.#.#.#.#.#.#.#.#.#.#.#.#.#.#.#.#.#.#.#.#.#.#.#.#.#.#.#.#.#.#.#.#.#.#.#.#.#.#.#.",
"#.#.#.#.#.#.#.#.#.#.#.#.#.#.#.#.#.#.#.#.#.#.#.#.#.#.#.#.#.#.#.#.#.#.#.#.#.#.#.#.#.#.#.#.#.#.#.#.#.#.#.#.#.#.#.#.#.#.#.#.#.#.#.#.",
"#.#.#.#.#.#.#.#.#.#.#.#.#.#.#.#.#.#.#.#.#.#.#.#.#.#.#.#.#.#.#.#.#.#.#.#.#.#.#.#.#.#.#.#.#.#.#.#.#.#.#.#.#.#.#.#.#.#.#.#.#.#.#.#.",
"#.#.#.#.#.#.#.#.#.#.#.#.#.#.#.#.#.#.#.#.#.#.#.#.#.#.#.#.#.#.#.#.#.#.#.#.#.#.#.#.#.#.#.#.#.#.#.#.#.#.#.#.#.#.#.#.#.#.#.#.#.#.#.#.",
"#.#.#.#.#.#.#.#.#.#.#.#.#.#.#.#.#.#.#.#.#.#.#.#.#.#.#.#.#.#.#.#.#.#.#.#.#.#.#.#.#.#.#.#.#.#.#.#.#.#.#.#.#.#.#.#.#.#.#.#.#.#.#.#.",
"#.#.#.#.#.#.#.#.#.#.#.#.#.#.#.#.#.#.#.#.#.#.#.#.#.#.#.#.#.#.#.#.#.#.#.#.#.#.#.#.#.#.#.#.#.#.#.#.#.#.#.#.#.#.#.#.#.#.#.#.#.#.#.#.",
"#.#.#.#.#.#.#.#.#.#.#.#.#.#.#.#.#.#.#.#.#.#.#.#.#.#.#.#.#.#.#.#.#.#.#.#.#.#.#.#.#.#.#.#.#.#.#.#.#.#.#.#.#.#.#.#.#.#.#.#.#.#.#.#.",
"#.#.#.#.#.#.#.#.#.#.#.#.#.#.#.#.#.#.#.#.#.#.#.#.#.#.#.#.#.#.#.#.#.#.#.#.#.#.#.#.#.#.#.#.#.#.#.#.#.#.#.#.#.#.#.#.#.#.#.#.#.#.#.#.",
"#.#.#.#.#.#.#.#.#.#.#.#.#.#.#.#.#.#.#.#.#.#.#.#.#.#.#.#.#.#.#.#.#.#.#.#.#.#.#.#.#.#.#.#.#.#.#.#.#.#.#.#.#.#.#.#.#.#.#.#.#.#.#.#.",
"#.#.#.#.#.#.#.#.#.#.#.#.#.#.#.#.#.#.#.#.#.#.#.#.#.#.#.#.#.#.#.#.#.#.#.#.#.#.#.#.#.#.#.#.#.#.#.#.#.#.#.#.#.#.#.#.#.#.#.#.#.#.#.#.",
"#.#.#.#.#.#.#.#.#.#.#.#.#.#.#.#.#.#.#.#.#.#.#.#.#.#.#.#.#.#.#.#.#.#.#.#.#.#.#.#.#.#.#.#.#.#.#.#.#.#.#.#.#.#.#.#.#.#.#.#.#.#.#.#.",
"#.#.#.#.#.#.#.#.#.#.#.#.#.#.#.#.#.#.#.#.#.#.#.#.#.#.#.#.#.#.#.#.#.#.#.#.#.#.#.#.#.#.#.#.#.#.#.#.#.#.#.#.#.#.#.#.#.#.#.#.#.#.#.#."
};
