/* XPM */
static char *ac7ae692c6134c52b82f527d30e256244wZAVpltoKF6W6qz[] = {
/* columns rows colors chars-per-pixel */
"64 64 91 1 ",
"  c black",
". c gray2",
"X c #090909",
"o c #0B0B0B",
"O c gray5",
"+ c #0F100F",
"@ c #161616",
"# c gray9",
"$ c #191919",
"% c #1B1B1B",
"& c #1D1D1D",
"* c gray12",
"= c #232323",
"- c gray14",
"; c #272727",
": c gray16",
"> c gray17",
", c #2C2C2C",
"< c gray18",
"1 c #2F2F2F",
"2 c gray19",
"3 c #313131",
"4 c #343434",
"5 c gray21",
"6 c #373737",
"7 c gray22",
"8 c gray23",
"9 c #3E3E3E",
"0 c #3F3F3F",
"q c #414141",
"w c #464646",
"e c #484848",
"r c #4B4B4B",
"t c #4C4C4C",
"y c #4F5050",
"u c #515151",
"i c #535353",
"p c #545354",
"a c #555555",
"s c gray34",
"d c #5A5A5A",
"f c #5D5E5D",
"g c #626262",
"h c gray40",
"j c gray42",
"k c #6C6C6C",
"l c #727272",
"z c #777777",
"x c gray47",
"c c #7B7B7B",
"v c #7C7C7C",
"b c gray49",
"n c #818181",
"m c #838384",
"M c gray53",
"N c #898989",
"B c #8B8B8B",
"V c #8D8C8D",
"C c #929292",
"Z c #959595",
"A c #9A9A9A",
"S c gray61",
"D c #9D9D9D",
"F c gray63",
"G c #A5A5A5",
"H c #A8A9A8",
"J c #AAAAAA",
"K c gray67",
"L c #AFAFAF",
"P c gray69",
"I c #B4B4B4",
"U c #BBBBBB",
"Y c gray",
"T c gray76",
"R c #C5C5C5",
"E c #C8C8C8",
"W c #CECECE",
"Q c gray83",
"! c #D5D5D5",
"~ c #DADADA",
"^ c #DFDFDF",
"/ c gray88",
"( c gray90",
") c gray91",
"_ c #ECECEC",
"` c #EFF0F0",
"' c #F3F3F3",
"] c #F6F6F6",
"[ c #FBFBFB",
"{ c gray99",
"} c white",
/* pixels */
"}}}}}}}}}}}}}}}}}}}}}}}}}}}}}}}}}}}}}}}}}}}}}}}}}}}}}}}}}}}}}}}}",
"}}}}}}}}}}}}}}}}}}}}}}}}}}}}}}}}}}}}}}}}}}}}}}}}}}}}}}}}}}}}}}}}",
"}}}}}}}}}}}}}}}}}}}}}}}}}}}}}}}}}}}}}}}}}}}}}}}}}}}}}}}}}}}}}}}}",
"}}}}}}}}}}}}}}}}}}}}}}}}}}}}}}}}}}}}}}}}}}}}}}}}}}}}}}}}}}}}}}}}",
"}}}}}}}}}}}}}}}}}}}}}}}}}}}}}}}}}}}}}}}}}}}}}}}}}}}}}}}}}}}}}}}}",
"}}}}}}}}}}}}}}}}}}}}}}}}}}}}}}}}}}}}}}}}}}}}}}}}}}}}}}}}}}}}}}}}",
"}}}}}}}}}}}}}}}}}}}}}}}}}}}}}}}}}}}}}}}}}}}}}}}}}}}}}}}}}}}}}}}}",
"}}}}}}}}}}}}}}}}}}}}}}}}}}}}}}}}}}}}}}}}}}}}}}}}}}}}}}}}}}}}}}}}",
"}}}}}}}}}}}}}}}}}}}}}}}}}}}}}}}}}}}}}}}}}}}}}}}}}}}}}}}}}}}}}}}}",
"}}}}}}}}}}}}}}}}}}}}}}}}}}}}}}}}}}}}}}}}}}}}}}}}}}}}}}}}}}}}}}}}",
"}}}}}}}}}}}}}}}}}}}}}}}}}}}}}}}}}}}}}}}}}}}}}}}}}}}}}}}}}}}}}}}}",
"}}}}}}}}}}}}}}}}}}}}}}}}}}}}}}}}}}}}}}}}}}}}}}}}}}}}}}}}}}}}}}}}",
"}}}}}}}}}}}}}}}}}}}}}}}}}}}}}}}}}}}}}[}}}}}}}}}}}[}}}}}}}}}}}}}}",
"}}}}}}}}}}}}}}}}}}}}}}}}}}}}}}}}}}}}}}}}}}}}}}}}}}}}}}}}}}}}}}}}",
"}}}}}}}}}}}}}}}}}}}}}}}}}}}}}}}}}}]'''[}}}}}}}}}[}[}}}}}}}}}}}}}",
"}}}}}}}!hbcccccczV)bzccccccbhY}}[}L;d5^}[}}}}}}EdbdR}}}}}}}}}}}}",
"}}}}}[}E 8<>><89>g(9=<<>299w P}[{}L t.^}[}}}}}}D w A}}}}}}}}}}}}",
"}}}}}}}E awrr8   u^wtrrr5  & H}}}}L a&^}}}}}}}}z5u8l}}}}}}}}}}}}",
"}}}}}}}/2>rw5CWTYR'l ww5ZWTTY^}[[}H u$^}[}}}}}_wqwq9(}[}}}}}}}}}",
"}}}}}}}}(z<rqaT}}}}]D9wqaR}}}}}}}}P u$^}}}}}[}! twt !}}}}}}}}}}}",
"}}}}}}}}}}M<rq z(}}}}N>rq c/}[}}[}H u&/}[}}}[}U twt I}}}}}}}}}}}",
"}}}}}}}}(Atwr5a>5Y}^c9rw>a>5T}}}}}P u$^}}}}}}}C#rqr$V}}}}}}}}}}}",
"}}}}}}})8 t5=kOrw l2&u=9MOrr U}}[}H u$/}}}}}}[h5www8g[}[}}}}}}}}",
"}}}}}}}/2a aW}Y=5t2wr l^}R29>L}[}}P u&![]]][}(5wwwww2(}}}}}}}}}}",
"}}}}}}}(& D'}}}/k8twqI}}}}(z I}}[}K tqdggdc]}W tqwwt E}[}}}}}}}}",
"}}}}}}}^u!}}[}[}R a F}}}}[}}CH}}}}P tw99q2d]}H rqZwt H}}}}}}}}}}",
"}}}}}}}''}}}}}}}R u H}}}}}}}}_}}[}H tw99q2d]}m;rt!dq>n}}}}}}}}}}",
"}}}}}}}}}}}}}}}}R a H}}}}}}}}}}}}}H tqafgak[]a95j[z<wu'}[}}}}}}}",
"}}}}}}!zMMNNMNMNk9w9gNMMMMMNNcT}[}P u&~}']]}^=u#C}Aou$/}}}}}}}}}",
"}}}}[}E 8<<<<<2>9tttq<22<<<<9 H}[}H u$^}}}}}T a P}U a T}[}}}}}}}",
"}}}}}}R <$$$$$$&@   o$$$#$$$< H}[}P u$^}[}[}F u Q}~Ou.D}}}}}}}}}",
"}}}}}}~ZDDDDDDDAASDADDDDDADDDZW}}}H u$^}}}}}c2rq)}_rw2z[}}}}}}}}",
"}}}}}}}}}}}}}}}}}}}}}}}}}}}}}}}}[}K u%/}[}})tw<l[}[z2tq_}}}}}}}}",
"}}}}}}}[!WWWW!WWW!WWW!WWW!WWW]}}}}P u$^}}[}!.uoA}}}D u !}}}}}}}}",
"}}}}}}}[d                   o)}}[}H u$^}[}}U a Y}[}T a P}[}}}}}}",
"}}}}}}}[z9yrwrrwwrrwwrrwwrrwr]}}}}H p$^}}}}Z#uo~}[}^#u&C}}}}}}}}",
"}}}}}}}[k2rquuuuutuutuuuuuuuu`}}}}P u$/}}}[h8wr_}}}'tq9h]}}}}}}}",
"}}}}}}}}b>u#W]'''''''''''''''[}}}}H u$^}[}(8r<z}}}}}b<t2(}}}}}}}",
"}}}}}}}}G a T}}}}}}}}}}}}}}}}}}}}}H u$^}[}! u A}}}[}G a W}[}}}}}",
"}}}}}}}}T u A}}}}}}}}[}}}[}}}}}}[}L u#^}[}L a T}[}}}R a H}}}}}}}",
"}}}}}}[}^;a8b}}}}}}}}}}}}}}}}}}}}}L#d<^}}}N2d>^}[}}}/2a8N}}}}}}}",
"}}}}}}}}_-  =_}}}}}}}}}}}}}}}}}}[}G < ~}}'2  >'}}}}}]5  ;'}}}}}}",
"}}}}}}}}}HZAZ)}}}}}}}}}}}}}}}}}}}}RCDZ(}}'PYLT}}}}}}}TPIL'}}}}}}",
"}}}}}}}}}}}}}}}}}}}}}}}}}}}}}}}}}}}}}}}}}}}}}}}}}}}}}}}}}}}}}}}}",
"}}}}}}}}}}}}[}}}}}}}}}}}}}}}}}}}}}}[}[}}}}[}[}}}}}}}}[}[[}}}}}}}",
"}}}}}}}}}}}}}}}}}}}}}}}}}}}}}}}}}}}}}}}}}}}}}}}}}}}}}}}}}}}}}}}}",
"}}}}}}}}}}}}}}}}}}}}}}}}}}}}}}}}}}}}}}}}}}}}}}}}}}}}}}}}}}}}}}}}",
"}}}}}}}}}}}}}}}}}}}}}}}}}}}}}}}}}}}}}}}}}}}}}}}}}}}}}}}}}}}}}}}}",
"}}}}}}}}}}}}}}}}}}}}}}}}}}}}}}}}}}}}}}}}}}}}}}}}}}}}}}}}}}}}}}}}",
"}}}}}}}}}}}}}}}}}}}}}}}}}}}}}}}}}}}}}}}}}}}}}}}}}}}}}}}}}}}}}}}}",
"}}}}}}}}}}}}}}}}}}}}}}}}}}}}}}}}}}}}}}}}}}}}}}}}}}}}}}}}}}}}}}}}",
"}}}}}}}}}}}}}}}}}}}}}}}}}}}}}}}}}}}}}}}}}}}}}}}}}}}}}}}}}}}}}}}}",
"}}}}}}}}}}}}}}}}}}}}}}}}}}}}}}}}}}}}}}}}}}}}}}}}}}}}}}}}}}}}}}}}",
"}}}}}}}}}}}}}}}}}}}}}}}}}}}}}}}}}}}}}}}}}}}}}}}}}}}}}}}}}}}}}}}}",
"}}}}}}}}}}}}}}}}}}}}}}}}}}}}}}}}}}}}}}}}}}}}}}}}}}}}}}}}}}}}}}}}",
"}}}}}}}}}}}}}}}}}}}}}}}}}}}}}}}}}}}}}}}}}}}}}}}}}}}}}}}}}}}}}}}}",
"}}}}}}}}}}}}}}}}}}}}}}}}}}}}}}}}}}}}}}}}}}}}}}}}}}}}}}}}}}}}}}}}",
"}}}}}}}}}}}}}}}}}}}}}}}}}}}}}}}}}}}}}}}}}}}}}}}}}}}}}}}}}}}}}}}}",
"}}}}}}}}}}}}}}}}}}}}}}}}}}}}}}}}}}}}}}}}}}}}}}}}}}}}}}}}}}}}}}}}",
"}}}}}}}}}}}}}}}}}}}}}}}}}}}}}}}}}}}}}}}}}}}}}}}}}}}}}}}}}}}}}}}}",
"}}}}}}}}}}}}}}}}}}}}}}}}}}}}}}}}}}}}}}}}}}}}}}}}}}}}}}}}}}}}}}}}",
"}}}}}}}}}}}}}}}}}}}}}}}}}}}}}}}}}}}}}}}}}}}}}}}}}}}}}}}}}}}}}}}}",
"}}}}}}}}}}}}}}}}}}}}}}}}}}}}}}}}}}}}}}}}}}}}}}}}}}}}}}}}}}}}}}}}",
"}}}}}}}}}}}}}}}}}}}}}}}}}}}}}}}}}}}}}}}}}}}}}}}}}}}}}}}}}}}}}}}}"
};
